# xmcd
#
# Track frame offsets: 
#        150
#        4717
#        20400
#        30726
#        44644
#        61260
#        73735
#        86040
#        109802
#        127139
#        137832
#        147524
#        161988
#        175408
#        187898
#        202850
#        220091
#        241210
#
# Disc length: 3375 seconds
#
# Revision: 0
# Processed by: cddbd v1.5.2PL0 Copyright (c) Steve Scherf et al.
# Submitted via: ExactAudioCopy v0.99pb3
#
DISCID=0b0d2d12
DTITLE=Southern Rail - Live! at the Linden Tree
DYEAR=2008
DGENRE=Bluegrass
TTITLE0=Prelude
TTITLE1=Carolina Lightning
TTITLE2=High, Low and Wide
TTITLE3=Greenville Trestle High
TTITLE4=Long Hard Road
TTITLE5=Prisoner Of The Highway
TTITLE6=Earl's Breakdown
TTITLE7=Mr. Beford's Barn
TTITLE8=On The Road From Appomattox
TTITLE9=Long Gone
TTITLE10=Jonah's Wail
TTITLE11=Mountains and Memories
TTITLE12=Children Go Where I Send Thee
TTITLE13=Polka On a Banjo
TTITLE14=Hard Times Come Again No More
TTITLE15=I Didn't Ask
TTITLE16=My Old Friends
TTITLE17=Foggy Mountain Breakdown
EXTD=
EXTT0=
EXTT1=
EXTT2=
EXTT3=
EXTT4=
EXTT5=
EXTT6=
EXTT7=
EXTT8=
EXTT9=
EXTT10=
EXTT11=
EXTT12=
EXTT13=
EXTT14=
EXTT15=
EXTT16=
EXTT17=
PLAYORDER=
